<svg width="50" height="50" viewBox="0 0 50 50" fill="none" xmlns="http://www.w3.org/2000/svg">
<path d="M24.98 4C13.94 4 5 12.96 5 24C5 35.04 13.94 44 24.98 44C36.04 44 45 35.04 45 24C45 12.96 36.04 4 24.98 4ZM38.84 16H32.94C32.3 13.5 31.38 11.1 30.18 8.88C33.86 10.14 36.92 12.7 38.84 16ZM25 8.08C26.66 10.48 27.96 13.14 28.82 16H21.18C22.04 13.14 23.34 10.48 25 8.08ZM9.52 28C9.2 26.72 9 25.38 9 24C9 22.62 9.2 21.28 9.52 20H16.28C16.12 21.32 16 22.64 16 24C16 25.36 16.12 26.68 16.28 28H9.52ZM11.16 32H17.06C17.7 34.5 18.62 36.9 19.82 39.12C16.14 37.86 13.08 35.32 11.16 32ZM17.06 16H11.16C13.08 12.68 16.14 10.14 19.82 8.88C18.62 11.1 17.7 13.5 17.06 16ZM25 39.92C23.34 37.52 22.04 34.86 21.18 32H28.82C27.96 34.86 26.66 37.52 25 39.92ZM29.68 28H20.32C20.14 26.68 20 25.36 20 24C20 22.64 20.14 21.3 20.32 20H29.68C29.86 21.3 30 22.64 30 24C30 25.36 29.86 26.68 29.68 28ZM30.18 39.12C31.38 36.9 32.3 34.5 32.94 32H38.84C36.92 35.3 33.86 37.86 30.18 39.12ZM33.72 28C33.88 26.68 34 25.36 34 24C34 22.64 33.88 21.32 33.72 20H40.48C40.8 21.28 41 22.62 41 24C41 25.38 40.8 26.72 40.48 28H33.72Z" fill="#F2FF04"/>
</svg>
